<svg xmlns="http://www.w3.org/2000/svg" viewBox="0 0 24 24" aria-hidden="true" focusable="false">
  <path fill="currentColor" d="M12 .5C5.73.5.5 5.73.5 12.02c0 5.11 3.29 9.45 7.86 10.98.58.1.79-.25.79-.56 0-.28-.01-1.02-.02-2-3.2.7-3.88-1.54-3.88-1.54-.53-1.35-1.3-1.71-1.3-1.71-1.06-.72.08-.71.08-.71 1.17.08 1.78 1.2 1.78 1.2 1.04 1.78 2.72 1.27 3.38.97.1-.75.4-1.27.73-1.56-2.56-.29-5.26-1.28-5.26-5.7 0-1.26.45-2.29 1.2-3.1-.12-.29-.52-1.47.11-3.06 0 0 .98-.31 3.2 1.19.93-.26 1.93-.39 2.92-.39s1.99.13 2.92.39c2.2-1.5 3.19-1.19 3.19-1.19.64 1.59.24 2.77.12 3.06.75.81 1.2 1.84 1.2 3.1 0 4.43-2.7 5.41-5.27 5.69.41.35.78 1.04.78 2.1 0 1.52-.01 2.74-.01 3.11 0 .31.21.67.8.56A10.52 10.52 0 0023.5 12c0-6.29-5.21-11.5-11.5-11.5z"/>
</svg>
