<?xml version="1.0" encoding="UTF-8"?>
<svg width="24" height="24" viewBox="0 0 24 24" xmlns="http://www.w3.org/2000/svg" aria-hidden="true">
  <g fill="none" fill-rule="evenodd">
    <path d="M23.52 12.272c0-.851-.076-1.67-.218-2.455H12v4.64h6.484a5.547 5.547 0 0 1-2.405 3.64v3.02h3.89c2.277-2.097 3.551-5.185 3.551-8.845Z" fill="#4285F4"/>
    <path d="M12 24c3.24 0 5.96-1.075 7.946-2.923l-3.89-3.02c-1.08.725-2.46 1.155-4.056 1.155-3.12 0-5.764-2.106-6.708-4.937H1.263v3.104A11.996 11.996 0 0 0 12 24Z" fill="#34A853"/>
    <path d="M5.292 14.275A7.197 7.197 0 0 1 4.92 12c0-.79.136-1.558.372-2.275V6.621H1.263A11.996 11.996 0 0 0 0 12c0 1.947.466 3.788 1.263 5.379l4.029-3.104Z" fill="#FBBC05"/>
    <path d="M12 4.75c1.763 0 3.35.606 4.596 1.796l3.448-3.448C17.956 1.283 15.24 0 12 0A11.996 11.996 0 0 0 1.263 6.621l4.029 3.104C6.236 6.894 8.88 4.75 12 4.75Z" fill="#EA4335"/>
  </g>
</svg>
